<svg width="14" height="14" viewBox="0 0 14 14" fill="none" xmlns="http://www.w3.org/2000/svg">
<path d="M6.99998 0.333008C3.32665 0.333008 0.333313 3.32634 0.333313 6.99967C0.333313 10.673 3.32665 13.6663 6.99998 13.6663C10.6733 13.6663 13.6666 10.673 13.6666 6.99967C13.6666 3.32634 10.6733 0.333008 6.99998 0.333008ZM9.23998 8.53301C9.43331 8.72634 9.43331 9.04634 9.23998 9.23967C9.13998 9.33967 9.01331 9.38634 8.88665 9.38634C8.75998 9.38634 8.63331 9.33967 8.53331 9.23967L6.99998 7.70634L5.46665 9.23967C5.36665 9.33967 5.23998 9.38634 5.11331 9.38634C4.98665 9.38634 4.85998 9.33967 4.75998 9.23967C4.56665 9.04634 4.56665 8.72634 4.75998 8.53301L6.29331 6.99967L4.75998 5.46634C4.56665 5.27301 4.56665 4.95301 4.75998 4.75967C4.95331 4.56634 5.27331 4.56634 5.46665 4.75967L6.99998 6.29301L8.53331 4.75967C8.72665 4.56634 9.04665 4.56634 9.23998 4.75967C9.43331 4.95301 9.43331 5.27301 9.23998 5.46634L7.70665 6.99967L9.23998 8.53301Z" fill="#999999"/>
</svg>
