<svg width="48" height="48" viewBox="0 0 48 48" fill="none" xmlns="http://www.w3.org/2000/svg">
<path d="M44 24C44 35.0457 35.0457 44 24 44C12.9543 44 4 35.0457 4 24C4 12.9543 12.9543 4 24 4C35.0457 4 44 12.9543 44 24ZM8 24C8 32.8366 15.1634 40 24 40C32.8366 40 40 32.8366 40 24C40 15.1634 32.8366 8 24 8C15.1634 8 8 15.1634 8 24Z" fill="white" fill-opacity="0.1"/>
<path d="M24 6C24 4.89543 24.8977 3.98964 25.9967 4.09991C29.1094 4.41222 32.1154 5.45159 34.7673 7.14576C37.9828 9.19999 40.5436 12.1312 42.1474 15.5934C43.7513 19.0557 44.3312 22.9045 43.8189 26.6856C43.3065 30.4668 41.7232 34.0224 39.2557 36.933C36.7883 39.8436 33.5398 41.9875 29.8935 43.1119C26.2473 44.2363 22.3555 44.2942 18.6774 43.2787C14.9993 42.2633 11.6884 40.2168 9.13557 37.3809C7.03017 35.0421 5.51277 32.2468 4.69517 29.2272C4.40648 28.161 5.15311 27.1272 6.24278 26.9464V26.9464C7.33245 26.7656 8.35023 27.5079 8.66549 28.5665C9.34097 30.8348 10.5139 32.9334 12.1085 34.7047C14.1508 36.9735 16.7994 38.6106 19.7419 39.423C22.6844 40.2354 25.7978 40.1891 28.7148 39.2896C31.6318 38.39 34.2307 36.6748 36.2046 34.3464C38.1785 32.0179 39.4452 29.1734 39.8551 26.1485C40.265 23.1236 39.801 20.0446 38.518 17.2748C37.2349 14.505 35.1863 12.16 32.6138 10.5166C30.6054 9.23352 28.3431 8.41991 25.9948 8.12483C24.8989 7.98712 24 7.10457 24 6V6Z" fill="url(#paint0_linear_13_39)"/>
<defs>
<linearGradient id="paint0_linear_13_39" x1="45.4487" y1="2.02068" x2="14.3392" y2="57.0537" gradientUnits="userSpaceOnUse">
<stop stop-color="#3036f4 "/>
<stop offset="0.192708" stop-color="#3036f4"/>
<stop offset="0.701961" stop-color="#3036f4"/>
<stop offset="1" stop-color="#3036f4 "/>
<stop offset="1" stop-color="#9d3ef2 "/>
</linearGradient>
</defs>
</svg>
