<svg width="20" height="20" viewBox="0 0 20 20" fill="none" xmlns="http://www.w3.org/2000/svg">
<path d="M9.99995 15.7167C10.408 15.7167 10.6968 15.4279 10.6968 15.0135V7.26032L10.6466 5.9043L12.2725 7.71861L13.7039 9.13742C13.8295 9.26297 14.0052 9.34459 14.1999 9.34459C14.5828 9.34459 14.8716 9.0558 14.8716 8.6603C14.8716 8.47824 14.8025 8.30873 14.6519 8.15806L10.5147 4.01465C10.3766 3.87026 10.1883 3.79492 9.99995 3.79492C9.80533 3.79492 9.617 3.87026 9.47888 4.01465L5.34802 8.15806C5.19735 8.30873 5.1283 8.47824 5.1283 8.6603C5.1283 9.0558 5.4108 9.34459 5.79375 9.34459C5.99465 9.34459 6.17043 9.26297 6.29599 9.13742L7.72107 7.71861L9.35332 5.89802L9.29682 7.26032V15.0135C9.29682 15.4279 9.58561 15.7167 9.99995 15.7167Z" fill="#129961"/>
</svg>
