<svg width="41" height="40" viewBox="0 0 41 40" fill="none" xmlns="http://www.w3.org/2000/svg">
<rect x="0.5" width="40" height="40" rx="20" fill="#F0F5FF"/>
<path d="M27.3112 15.2H12.3112V14.6L25.5112 13.544V14.6H27.3112V12.8C27.3112 11.48 26.242 10.5536 24.9364 10.7396L12.8872 12.4604C11.5804 12.6476 10.5112 13.88 10.5112 15.2V27.2C10.5112 27.8365 10.7641 28.447 11.2142 28.897C11.6643 29.3471 12.2747 29.6 12.9112 29.6H27.3112C27.9478 29.6 28.5582 29.3471 29.0083 28.897C29.4584 28.447 29.7112 27.8365 29.7112 27.2V17.6C29.7112 16.9635 29.4584 16.353 29.0083 15.9029C28.5582 15.4528 27.9478 15.2 27.3112 15.2ZM25.5112 23.6072C25.2748 23.6071 25.0406 23.5605 24.8222 23.4699C24.6038 23.3793 24.4053 23.2466 24.2382 23.0794C24.071 22.9121 23.9385 22.7136 23.8481 22.4951C23.7576 22.2766 23.7112 22.0424 23.7112 21.806C23.7113 21.5695 23.758 21.3354 23.8485 21.117C23.9391 20.8985 24.0718 20.7001 24.239 20.5329C24.4063 20.3658 24.6048 20.2332 24.8233 20.1428C25.0418 20.0524 25.276 20.0059 25.5124 20.006C25.99 20.0061 26.4479 20.196 26.7855 20.5338C27.123 20.8716 27.3126 21.3296 27.3124 21.8072C27.3123 22.2847 27.1224 22.7427 26.7846 23.0802C26.4468 23.4178 25.9888 23.6073 25.5112 23.6072Z" fill="#129961"/>
</svg>
