<svg width="40" height="40" viewBox="0 0 40 40" fill="none" xmlns="http://www.w3.org/2000/svg">
<circle cx="20" cy="20" r="20" fill="#F0F5FF"/>
<path fill-rule="evenodd" clip-rule="evenodd" d="M28.6725 15.8997L20.1641 11.4988C19.794 11.3077 19.3543 11.3077 18.9841 11.4988L10.4775 15.8997C10.3066 15.9874 10.1992 16.1634 10.1992 16.3555C10.1992 16.5476 10.3066 16.7235 10.4775 16.8113L18.985 21.2122C19.3551 21.4033 19.7949 21.4033 20.165 21.2122L28.6725 16.8113C28.8428 16.7231 28.9497 16.5473 28.9497 16.3555C28.9497 16.1637 28.8428 15.9879 28.6725 15.8997Z" stroke="#8557E7" stroke-width="1.5" stroke-linecap="round" stroke-linejoin="round"/>
<path d="M10.2124 20.7305L18.9849 24.9621C19.355 25.1533 19.7948 25.1533 20.1649 24.9621L28.9624 20.7305" stroke="#8557E7" stroke-width="1.5" stroke-linecap="round" stroke-linejoin="round"/>
<path d="M10.2124 24.4805L18.9849 28.7121C19.355 28.9033 19.7948 28.9033 20.1649 28.7121L28.9624 24.4805" stroke="#8557E7" stroke-width="1.5" stroke-linecap="round" stroke-linejoin="round"/>
</svg>
