<svg width="16" height="16" viewBox="0 0 16 16" fill="none" xmlns="http://www.w3.org/2000/svg">
<path d="M7.99996 10.5647C8.17575 10.5597 8.33646 10.4944 8.46704 10.3538L12.284 6.44642C12.3945 6.33593 12.4548 6.19531 12.4548 6.02957C12.4548 5.6981 12.1936 5.43192 11.8621 5.43192C11.7014 5.43192 11.5457 5.49721 11.4302 5.61272L8.00499 9.13337L4.56972 5.61272C4.45421 5.50223 4.30354 5.43192 4.1378 5.43192C3.80633 5.43192 3.54517 5.6981 3.54517 6.02957C3.54517 6.19531 3.60543 6.33593 3.71592 6.44642L7.53791 10.3538C7.67351 10.4944 7.82418 10.5647 7.99996 10.5647Z" fill="#ECECEC"/>
</svg>
