<svg width="32" height="32" viewBox="0 0 32 32" fill="none" xmlns="http://www.w3.org/2000/svg">
<g clip-path="url(#clip0_1_2)">
<path d="M15.5152 32C24.0839 32 31.0303 24.8366 31.0303 16C31.0303 7.16344 24.0839 0 15.5152 0C6.94637 0 0 7.16344 0 16C0 24.8366 6.94637 32 15.5152 32Z" fill="#31353E"/>
<path d="M15.9648 23.3362L14.2215 22.2877V24.4211L15.9648 25.4229L17.8082 24.4211V22.2877L15.9648 23.3362Z" fill="#F4BB27"/>
<path d="M12.9023 20.0016L11.1087 18.9733V16.9352L12.9023 18.0242V20.0016Z" fill="#F4BB27"/>
<path d="M19.1043 20.0016L20.8978 18.9733V16.9352L19.1043 18.0242V20.0016Z" fill="#F4BB27"/>
<path d="M15.9652 7L11.1691 9.78833L12.9208 10.7574L15.9652 9.05147L19.1347 10.7574L20.8816 9.78258L15.9652 7Z" fill="#F4BB27"/>
<path d="M15.9719 10.5477L14.2497 11.5579L15.9719 12.5532L17.68 11.5579L15.9719 10.5477Z" fill="#F4BB27"/>
<path d="M9.8305 10.5429L8.00587 11.5634V13.647L9.8305 14.6569V12.5734L11.5417 11.5634L9.8305 10.5429Z" fill="#F4BB27"/>
<path d="M22.1754 10.5429L24 11.5634V13.647L22.1754 14.6569V12.5734L20.4642 11.5634L22.1754 10.5429Z" fill="#F4BB27"/>
<path d="M15.9595 14.0981L12.9 12.3245L11.0935 13.3399V15.4454L14.1242 17.1453V20.6792L15.9665 21.8184L17.8032 20.8036V17.2605L20.8752 15.4436V13.3356L19.0336 12.3229L15.9595 14.0981Z" fill="#F4BB27"/>
<path d="M9.81651 16.1737L8 15.1253L8.02243 20.7914L12.9038 23.582V21.5314L9.81651 19.743V16.1737Z" fill="#F4BB27"/>
<path d="M22.147 16.1737L23.9635 15.1253L23.941 20.7914L19.0596 23.582V21.5314L22.147 19.743V16.1737Z" fill="#F4BB27"/>
</g>
<defs>
<clipPath id="clip0_1_2">
<rect width="32" height="32" fill="white"/>
</clipPath>
</defs>
</svg>
