<svg width="4" height="14" viewBox="0 0 4 14" fill="none" xmlns="http://www.w3.org/2000/svg">
<path d="M1.99967 13.6663C1.55765 13.6663 1.13372 13.4907 0.821163 13.1782C0.508603 12.8656 0.333008 12.4417 0.333008 11.9997C0.333008 11.5576 0.508603 11.1337 0.821163 10.8212C1.13372 10.5086 1.55765 10.333 1.99967 10.333C2.4417 10.333 2.86562 10.5086 3.17819 10.8212C3.49075 11.1337 3.66634 11.5576 3.66634 11.9997C3.66634 12.4417 3.49075 12.8656 3.17819 13.1782C2.86562 13.4907 2.4417 13.6663 1.99967 13.6663ZM1.99967 8.66634C1.55765 8.66634 1.13372 8.49075 0.821163 8.17818C0.508603 7.86562 0.333008 7.4417 0.333008 6.99967C0.333008 6.55765 0.508603 6.13372 0.821163 5.82116C1.13372 5.5086 1.55765 5.33301 1.99967 5.33301C2.4417 5.33301 2.86562 5.5086 3.17819 5.82116C3.49075 6.13372 3.66634 6.55765 3.66634 6.99967C3.66634 7.4417 3.49075 7.86562 3.17819 8.17818C2.86562 8.49075 2.4417 8.66634 1.99967 8.66634ZM1.99967 3.66634C1.55765 3.66634 1.13372 3.49075 0.821163 3.17819C0.508603 2.86562 0.333008 2.4417 0.333008 1.99967C0.333008 1.55765 0.508603 1.13372 0.821163 0.821163C1.13372 0.508602 1.55765 0.333008 1.99967 0.333008C2.4417 0.333008 2.86562 0.508602 3.17819 0.821163C3.49075 1.13372 3.66634 1.55765 3.66634 1.99967C3.66634 2.4417 3.49075 2.86562 3.17819 3.17819C2.86562 3.49075 2.4417 3.66634 1.99967 3.66634Z" fill="#5A6273"/>
</svg>
