<svg width="8" height="6" viewBox="0 0 8 6" fill="none" xmlns="http://www.w3.org/2000/svg">
<path d="M3.69122 5.1204C3.72562 5.16037 3.77166 5.19305 3.82536 5.21563C3.87906 5.2382 3.93882 5.25 3.99949 5.25C4.06016 5.25 4.11992 5.2382 4.17362 5.21563C4.22732 5.19305 4.27336 5.16037 4.30777 5.1204L7.68303 1.22067C7.7221 1.17569 7.74501 1.123 7.74927 1.06834C7.75354 1.01368 7.73899 0.959123 7.70721 0.910607C7.67544 0.862092 7.62765 0.82147 7.56903 0.793155C7.51042 0.764839 7.44323 0.749914 7.37476 0.75H0.624227C0.555913 0.750226 0.488969 0.765343 0.430592 0.793726C0.372216 0.822109 0.324617 0.862684 0.292915 0.911087C0.261212 0.95949 0.246605 1.01389 0.250664 1.06844C0.254723 1.12298 0.277296 1.17561 0.315953 1.22067L3.69122 5.1204Z" fill="#5A6273"/>
</svg>
