<svg width="64" height="64" viewBox="0 0 64 64" fill="none" xmlns="http://www.w3.org/2000/svg">
<circle cx="32" cy="32" r="32" fill="#129961"/>
<path d="M37 18C40.3333 18 43 18.5208 45 19.5625C47 20.6042 48 21.75 48 23V35C48 35.8333 47.5625 36.625 46.6875 37.375C45.8125 38.125 44.6042 38.7292 43.0625 39.1875C41.5208 39.6458 39.8333 39.9167 38 40V41C38 42.375 36.9167 43.5417 34.75 44.5C32.625 45.5 30.0417 46 27 46C23.9583 46 21.3542 45.5 19.1875 44.5C17.0625 43.5417 16 42.375 16 41V29C16 27.6667 16.9792 26.5417 18.9375 25.625C20.8958 24.6667 23.25 24.1458 26 24.0625V23C26 21.5833 27.0833 20.3958 29.25 19.4375C31.375 18.4792 33.9583 18 37 18ZM36 41V37.875C33.7917 39.2917 30.7917 40 27 40C23.2083 40 20.2083 39.2917 18 37.875V41C18 41.3333 18.3125 41.7292 18.9375 42.1875C19.6042 42.6042 20.6667 43.0208 22.125 43.4375C23.5833 43.8125 25.2083 44 27 44C28.7917 44 30.4167 43.8125 31.875 43.4375C33.3333 43.0208 34.375 42.6042 35 42.1875C35.6667 41.7292 36 41.3333 36 41ZM36 35V31.875C33.7917 33.2917 30.7917 34 27 34C23.2083 34 20.2083 33.2917 18 31.875V35C18 35.3333 18.3125 35.7292 18.9375 36.1875C19.6042 36.6042 20.6667 37.0208 22.125 37.4375C23.5833 37.8125 25.2083 38 27 38C28.7917 38 30.4167 37.8125 31.875 37.4375C33.3333 37.0208 34.375 36.6042 35 36.1875C35.6667 35.7292 36 35.3333 36 35ZM20.5 31.125C22.2917 31.7083 24.4583 32 27 32C29.5417 32 31.7083 31.7083 33.5 31.125C35.2917 30.5417 36.1875 29.8333 36.1875 29C36.1875 28.1667 35.2917 27.4583 33.5 26.875C31.7083 26.2917 29.5417 26 27 26C24.4583 26 22.2917 26.2917 20.5 26.875C18.7083 27.4583 17.8125 28.1667 17.8125 29C17.8125 29.8333 18.7083 30.5417 20.5 31.125ZM46 35V31.875C44.0833 33.125 41.4167 33.8125 38 33.9375V37.9375C39.5833 37.8958 41.0208 37.6875 42.3125 37.3125C43.6042 36.8958 44.5417 36.4792 45.125 36.0625C45.7083 35.6458 46 35.2917 46 35ZM46 29V25.875C44 27.1667 41.25 27.875 37.75 28C37.9167 28.375 38 28.7083 38 29V31.9375C39.5833 31.8542 41.0208 31.625 42.3125 31.25C43.6042 30.875 44.5417 30.4792 45.125 30.0625C45.7083 29.6458 46 29.2917 46 29ZM37 26C39.5417 26 41.7083 25.7083 43.5 25.125C45.2917 24.5417 46.1875 23.8333 46.1875 23C46.1875 22.1667 45.2917 21.4583 43.5 20.875C41.7083 20.2917 39.5417 20 37 20C34.4583 20 32.2917 20.2917 30.5 20.875C28.7083 21.4583 27.8125 22.1667 27.8125 23C27.8125 23.375 28.0417 23.7292 28.5 24.0625C31.4583 24.2292 33.8542 24.8542 35.6875 25.9375C36.3542 25.9792 36.7917 26 37 26Z" fill="#F3F2F1"/>
</svg>
