<svg width="20" height="20" viewBox="0 0 20 20" fill="none" xmlns="http://www.w3.org/2000/svg">
<path d="M9.99993 4.28334C9.59187 4.28334 9.30308 4.57213 9.30308 4.98647L9.30308 12.7397L9.35331 14.0957L7.72733 12.2814L6.29597 10.8626C6.17041 10.737 5.99463 10.6554 5.80001 10.6554C5.41706 10.6554 5.12828 10.9442 5.12828 11.3397C5.12828 11.5218 5.19734 11.6913 5.34801 11.8419L9.48514 15.9854C9.62326 16.1297 9.81159 16.2051 9.99993 16.2051C10.1945 16.2051 10.3829 16.1297 10.521 15.9854L14.6519 11.8419C14.8025 11.6913 14.8716 11.5218 14.8716 11.3397C14.8716 10.9442 14.5891 10.6554 14.2061 10.6554C14.0052 10.6554 13.8295 10.737 13.7039 10.8626L12.2788 12.2814L10.6466 14.102L10.7031 12.7397L10.7031 4.98647C10.7031 4.57213 10.4143 4.28334 9.99993 4.28334Z" fill="#CF202F"/>
</svg>
