<svg width="12" height="18" viewBox="0 0 12 18" fill="none" xmlns="http://www.w3.org/2000/svg">
<path d="M6.30878 3.8796C6.27438 3.83963 6.22834 3.80695 6.17464 3.78437C6.12094 3.7618 6.06118 3.75 6.00051 3.75C5.93984 3.75 5.88008 3.7618 5.82638 3.78437C5.77268 3.80695 5.72664 3.83963 5.69223 3.8796L2.31697 7.77933C2.2779 7.82431 2.25499 7.877 2.25073 7.93166C2.24646 7.98632 2.26101 8.04088 2.29279 8.08939C2.32456 8.13791 2.37235 8.17853 2.43097 8.20685C2.48958 8.23516 2.55677 8.25009 2.62524 8.25H9.37577C9.44409 8.24977 9.51103 8.23466 9.56941 8.20627C9.62778 8.17789 9.67538 8.13732 9.70709 8.08891C9.73879 8.04051 9.7534 7.98611 9.74934 7.93156C9.74528 7.87702 9.7227 7.82439 9.68405 7.77933L6.30878 3.8796Z" fill="url(#paint0_linear_312_6246)"/>
<path d="M5.69122 14.1204C5.72562 14.1604 5.77166 14.193 5.82536 14.2156C5.87906 14.2382 5.93882 14.25 5.99949 14.25C6.06016 14.25 6.11992 14.2382 6.17362 14.2156C6.22732 14.193 6.27336 14.1604 6.30777 14.1204L9.68303 10.2207C9.7221 10.1757 9.74501 10.123 9.74927 10.0683C9.75354 10.0137 9.73899 9.95912 9.70721 9.91061C9.67544 9.86209 9.62765 9.82147 9.56903 9.79315C9.51042 9.76484 9.44323 9.74991 9.37476 9.75H2.62423C2.55591 9.75023 2.48897 9.76534 2.43059 9.79373C2.37222 9.82211 2.32462 9.86268 2.29291 9.91109C2.26121 9.95949 2.2466 10.0139 2.25066 10.0684C2.25472 10.123 2.2773 10.1756 2.31595 10.2207L5.69122 14.1204Z" fill="#5A6273"/>
<defs>
<linearGradient id="paint0_linear_312_6246" x1="9.75" y1="3.75" x2="2.25" y2="3.75" gradientUnits="userSpaceOnUse">
<stop offset="0.0985075" stop-color="#B32DF0"/>
<stop offset="0.653731" stop-color="#204CFE"/>
<stop offset="0.808955" stop-color="#1660FE"/>
<stop offset="1" stop-color="#2E89FF"/>
</linearGradient>
</defs>
</svg>
