<svg width="64" height="64" viewBox="0 0 64 64" fill="none" xmlns="http://www.w3.org/2000/svg">
<circle cx="32" cy="32" r="32" fill="#129961"/>
<path d="M36.9863 18.8438C39.9551 18.8438 42.3301 19.3076 44.1113 20.2354C45.8926 21.1631 46.7832 22.1836 46.7832 23.2969V33.9844C46.7832 34.7266 46.3936 35.4316 45.6143 36.0996C44.835 36.7676 43.7588 37.3057 42.3857 37.7139C41.0127 38.1221 39.5098 38.3633 37.877 38.4375V39.3281C37.877 40.5527 36.9121 41.5918 34.9824 42.4453C33.0898 43.3359 30.7891 43.7812 28.0801 43.7812C25.3711 43.7812 23.0518 43.3359 21.1221 42.4453C19.2295 41.5918 18.2832 40.5527 18.2832 39.3281V28.6406C18.2832 27.4531 19.1553 26.4512 20.8994 25.6348C22.6436 24.7812 24.7402 24.3174 27.1895 24.2432V23.2969C27.1895 22.0352 28.1543 20.9775 30.084 20.124C31.9766 19.2705 34.2773 18.8438 36.9863 18.8438ZM36.0957 39.3281V36.5449C34.1289 37.8066 31.457 38.4375 28.0801 38.4375C24.7031 38.4375 22.0312 37.8066 20.0645 36.5449V39.3281C20.0645 39.625 20.3428 39.9775 20.8994 40.3857C21.4932 40.7568 22.4395 41.1279 23.7383 41.499C25.0371 41.833 26.4844 42 28.0801 42C29.6758 42 31.123 41.833 32.4219 41.499C33.7207 41.1279 34.6484 40.7568 35.2051 40.3857C35.7988 39.9775 36.0957 39.625 36.0957 39.3281ZM36.0957 33.9844V31.2012C34.1289 32.4629 31.457 33.0938 28.0801 33.0938C24.7031 33.0938 22.0312 32.4629 20.0645 31.2012V33.9844C20.0645 34.2812 20.3428 34.6338 20.8994 35.042C21.4932 35.4131 22.4395 35.7842 23.7383 36.1553C25.0371 36.4893 26.4844 36.6562 28.0801 36.6562C29.6758 36.6562 31.123 36.4893 32.4219 36.1553C33.7207 35.7842 34.6484 35.4131 35.2051 35.042C35.7988 34.6338 36.0957 34.2812 36.0957 33.9844ZM22.291 30.5332C23.8867 31.0527 25.8164 31.3125 28.0801 31.3125C30.3438 31.3125 32.2734 31.0527 33.8691 30.5332C35.4648 30.0137 36.2627 29.3828 36.2627 28.6406C36.2627 27.8984 35.4648 27.2676 33.8691 26.748C32.2734 26.2285 30.3438 25.9688 28.0801 25.9688C25.8164 25.9688 23.8867 26.2285 22.291 26.748C20.6953 27.2676 19.8975 27.8984 19.8975 28.6406C19.8975 29.3828 20.6953 30.0137 22.291 30.5332ZM45.002 33.9844V31.2012C43.2949 32.3145 40.9199 32.9268 37.877 33.0381V36.6006C39.2871 36.5635 40.5674 36.3779 41.7178 36.0439C42.8682 35.6729 43.7031 35.3018 44.2227 34.9307C44.7422 34.5596 45.002 34.2441 45.002 33.9844ZM45.002 28.6406V25.8574C43.2207 27.0078 40.7715 27.6387 37.6543 27.75C37.8027 28.084 37.877 28.3809 37.877 28.6406V31.2568C39.2871 31.1826 40.5674 30.9785 41.7178 30.6445C42.8682 30.3105 43.7031 29.958 44.2227 29.5869C44.7422 29.2158 45.002 28.9004 45.002 28.6406ZM36.9863 25.9688C39.25 25.9688 41.1797 25.709 42.7754 25.1895C44.3711 24.6699 45.1689 24.0391 45.1689 23.2969C45.1689 22.5547 44.3711 21.9238 42.7754 21.4043C41.1797 20.8848 39.25 20.625 36.9863 20.625C34.7227 20.625 32.793 20.8848 31.1973 21.4043C29.6016 21.9238 28.8037 22.5547 28.8037 23.2969C28.8037 23.6309 29.0078 23.9463 29.416 24.2432C32.0508 24.3916 34.1846 24.9482 35.8174 25.9131C36.4111 25.9502 36.8008 25.9688 36.9863 25.9688Z" fill="white"/>
</svg>
