<svg width="24" height="24" viewBox="0 0 24 24" fill="none" xmlns="http://www.w3.org/2000/svg">
<path d="M11.9999 18.7534C11.5521 18.7534 11.1227 18.5755 10.806 18.2589C10.4894 17.9422 10.3115 17.5128 10.3115 17.065C10.3115 16.6172 10.4894 16.1878 10.806 15.8712C11.1227 15.5545 11.5521 15.3767 11.9999 15.3767C12.4476 15.3767 12.8771 15.5545 13.1937 15.8712C13.5103 16.1878 13.6882 16.6172 13.6882 17.065C13.6882 17.5128 13.5103 17.9422 13.1937 18.2589C12.8771 18.5755 12.4476 18.7534 11.9999 18.7534ZM11.9999 13.6883C11.5521 13.6883 11.1227 13.5104 10.806 13.1938C10.4894 12.8772 10.3115 12.4478 10.3115 12C10.3115 11.5522 10.4894 11.1228 10.806 10.8061C11.1227 10.4895 11.5521 10.3116 11.9999 10.3116C12.4476 10.3116 12.8771 10.4895 13.1937 10.8061C13.5103 11.1228 13.6882 11.5522 13.6882 12C13.6882 12.4478 13.5103 12.8772 13.1937 13.1938C12.8771 13.5104 12.4476 13.6883 11.9999 13.6883ZM11.9999 8.62328C11.5521 8.62328 11.1227 8.4454 10.806 8.12877C10.4894 7.81215 10.3115 7.38271 10.3115 6.93493C10.3115 6.48715 10.4894 6.05771 10.806 5.74109C11.1227 5.42446 11.5521 5.24658 11.9999 5.24658C12.4476 5.24658 12.8771 5.42446 13.1937 5.74109C13.5103 6.05771 13.6882 6.48715 13.6882 6.93493C13.6882 7.38271 13.5103 7.81215 13.1937 8.12877C12.8771 8.4454 12.4476 8.62328 11.9999 8.62328Z" fill="#5A6273"/>
</svg>
