<svg width="14" height="14" viewBox="0 0 14 14" fill="none" xmlns="http://www.w3.org/2000/svg">
<rect width="14" height="14" rx="2" fill="#31353E"/>
<path d="M8.49115 7.00046C8.49115 7.82546 7.82448 8.49212 6.99948 8.49212C6.17448 8.49212 5.50781 7.82546 5.50781 7.00046C5.50781 6.17546 6.17448 5.50879 6.99948 5.50879C7.82448 5.50879 8.49115 6.17546 8.49115 7.00046Z" stroke="#ECECEC" stroke-width="0.8" stroke-linecap="round" stroke-linejoin="round"/>
<path d="M6.99993 10.4456C8.47077 10.4456 9.8416 9.57897 10.7958 8.07897C11.1708 7.49147 11.1708 6.50397 10.7958 5.91647C9.8416 4.41647 8.47077 3.5498 6.99993 3.5498C5.5291 3.5498 4.15827 4.41647 3.2041 5.91647C2.8291 6.50397 2.8291 7.49147 3.2041 8.07897C4.15827 9.57897 5.5291 10.4456 6.99993 10.4456Z" stroke="#ECECEC" stroke-width="0.8" stroke-linecap="round" stroke-linejoin="round"/>
</svg>
