<svg width="12" height="12" viewBox="0 0 12 12" fill="none" xmlns="http://www.w3.org/2000/svg">
<path d="M8.1204 6.30878C8.16037 6.27438 8.19305 6.22834 8.21563 6.17464C8.2382 6.12094 8.25 6.06118 8.25 6.00051C8.25 5.93984 8.2382 5.88008 8.21563 5.82638C8.19305 5.77268 8.16037 5.72664 8.1204 5.69223L4.22067 2.31697C4.17569 2.2779 4.123 2.25499 4.06834 2.25073C4.01368 2.24646 3.95912 2.26101 3.91061 2.29279C3.86209 2.32456 3.82147 2.37235 3.79315 2.43097C3.76484 2.48958 3.74991 2.55677 3.75 2.62524L3.75 9.37577C3.75023 9.44409 3.76534 9.51103 3.79373 9.56941C3.82211 9.62778 3.86268 9.67538 3.91109 9.70709C3.95949 9.73879 4.01389 9.7534 4.06844 9.74934C4.12298 9.74528 4.17561 9.7227 4.22067 9.68405L8.1204 6.30878Z" fill="#999999"/>
</svg>
