<svg width="14" height="14" viewBox="0 0 14 14" fill="none" xmlns="http://www.w3.org/2000/svg">
<rect width="14" height="14" rx="2" fill="#31353E"/>
<path d="M5.9458 8.36712C5.86663 8.36712 5.78747 8.33796 5.72497 8.27546C5.3833 7.93379 5.1958 7.47962 5.1958 7.00046C5.1958 6.00462 6.00413 5.19629 6.99997 5.19629C7.47913 5.19629 7.9333 5.38379 8.27497 5.72546C8.3333 5.78379 8.36663 5.86296 8.36663 5.94629C8.36663 6.02962 8.3333 6.10879 8.27497 6.16712L6.16663 8.27546C6.10413 8.33796 6.02497 8.36712 5.9458 8.36712ZM6.99997 5.82129C6.34997 5.82129 5.8208 6.35046 5.8208 7.00046C5.8208 7.20879 5.87497 7.40879 5.97497 7.58379L7.5833 5.97546C7.4083 5.87546 7.2083 5.82129 6.99997 5.82129Z" fill="#ECECEC"/>
<path d="M4.33327 9.71204C4.26243 9.71204 4.18743 9.68704 4.1291 9.63704C3.68327 9.25788 3.28327 8.79121 2.9416 8.24954C2.49993 7.56204 2.49993 6.44121 2.9416 5.74954C3.95827 4.15788 5.43743 3.24121 6.99994 3.24121C7.9166 3.24121 8.82077 3.55788 9.61244 4.15371C9.74994 4.25788 9.7791 4.45371 9.67494 4.59121C9.57077 4.72871 9.37494 4.75788 9.23744 4.65371C8.5541 4.13704 7.7791 3.86621 6.99994 3.86621C5.6541 3.86621 4.3666 4.67454 3.4666 6.08704C3.1541 6.57454 3.1541 7.42454 3.4666 7.91204C3.7791 8.39954 4.13743 8.82038 4.53327 9.16204C4.66243 9.27454 4.6791 9.47038 4.5666 9.60371C4.50827 9.67454 4.42077 9.71204 4.33327 9.71204Z" fill="#ECECEC"/>
<path d="M7.00007 10.7588C6.4459 10.7588 5.90423 10.6463 5.3834 10.4254C5.22507 10.3588 5.15007 10.1754 5.21673 10.0171C5.2834 9.85878 5.46673 9.78378 5.62507 9.85045C6.06673 10.0379 6.52923 10.1338 6.9959 10.1338C8.34173 10.1338 9.62923 9.32545 10.5292 7.91295C10.8417 7.42545 10.8417 6.57545 10.5292 6.08795C10.4001 5.88378 10.2584 5.68795 10.1084 5.50461C10.0001 5.37128 10.0209 5.17545 10.1542 5.06295C10.2876 4.95461 10.4834 4.97128 10.5959 5.10878C10.7584 5.30878 10.9167 5.52545 11.0584 5.75045C11.5001 6.43795 11.5001 7.55878 11.0584 8.25045C10.0417 9.84211 8.56257 10.7588 7.00007 10.7588Z" fill="#ECECEC"/>
<path d="M7.28757 8.77882C7.14174 8.77882 7.00841 8.67466 6.97924 8.52466C6.94591 8.35382 7.05841 8.19132 7.22924 8.16216C7.68757 8.07882 8.07091 7.69549 8.15424 7.23716C8.18757 7.06632 8.35007 6.95799 8.52091 6.98716C8.69174 7.02049 8.80424 7.18299 8.77091 7.35382C8.63757 8.07466 8.06257 8.64549 7.34591 8.77882C7.32507 8.77466 7.30841 8.77882 7.28757 8.77882Z" fill="#ECECEC"/>
<path d="M2.83343 11.4796C2.75426 11.4796 2.6751 11.4505 2.6126 11.388C2.49176 11.2671 2.49176 11.0671 2.6126 10.9463L5.7251 7.83379C5.84593 7.71296 6.04593 7.71296 6.16676 7.83379C6.2876 7.95462 6.2876 8.15462 6.16676 8.27546L3.05426 11.388C2.99176 11.4505 2.9126 11.4796 2.83343 11.4796Z" fill="#ECECEC"/>
<path d="M8.05413 6.25794C7.97497 6.25794 7.8958 6.22878 7.8333 6.16628C7.71247 6.04544 7.71247 5.84544 7.8333 5.72461L10.9458 2.61211C11.0666 2.49128 11.2666 2.49128 11.3875 2.61211C11.5083 2.73294 11.5083 2.93294 11.3875 3.05378L8.27497 6.16628C8.21247 6.22878 8.1333 6.25794 8.05413 6.25794Z" fill="#ECECEC"/>
</svg>
