<svg width="12" height="12" viewBox="0 0 12 12" fill="none" xmlns="http://www.w3.org/2000/svg">
<path d="M5.69122 8.1204C5.72562 8.16037 5.77166 8.19305 5.82536 8.21563C5.87906 8.2382 5.93882 8.25 5.99949 8.25C6.06016 8.25 6.11992 8.2382 6.17362 8.21563C6.22732 8.19305 6.27336 8.16037 6.30777 8.1204L9.68303 4.22067C9.7221 4.17569 9.74501 4.123 9.74927 4.06834C9.75354 4.01368 9.73899 3.95912 9.70721 3.91061C9.67544 3.86209 9.62765 3.82147 9.56903 3.79315C9.51042 3.76484 9.44323 3.74991 9.37476 3.75H2.62423C2.55591 3.75023 2.48897 3.76534 2.43059 3.79373C2.37222 3.82211 2.32462 3.86268 2.29291 3.91109C2.26121 3.95949 2.2466 4.01389 2.25066 4.06844C2.25472 4.12298 2.2773 4.17561 2.31595 4.22067L5.69122 8.1204Z" fill="#999999"/>
</svg>
