<svg width="16" height="16" viewBox="0 0 16 16" fill="none" xmlns="http://www.w3.org/2000/svg">
<path d="M7.58829 10.8272C7.63416 10.8805 7.69555 10.9241 7.76715 10.9542C7.83875 10.9843 7.91843 11 7.99932 11C8.08021 11 8.15989 10.9843 8.2315 10.9542C8.3031 10.9241 8.36448 10.8805 8.41035 10.8272L12.9107 5.62756C12.9628 5.56758 12.9933 5.49734 12.999 5.42445C13.0047 5.35157 12.9853 5.27883 12.943 5.21414C12.9006 5.14946 12.8369 5.09529 12.7587 5.05754C12.6806 5.01979 12.591 4.99989 12.4997 5H3.49897C3.40788 5.0003 3.31862 5.02046 3.24079 5.0583C3.16296 5.09615 3.09949 5.15025 3.05722 5.21478C3.01495 5.27932 2.99547 5.35185 3.00089 5.42458C3.0063 5.49731 3.03639 5.56749 3.08794 5.62756L7.58829 10.8272Z" fill="#999999"/>
</svg>
